<?xml version="1.0" encoding="utf-8"?>
<!-- Generator: Adobe Illustrator 19.0.0, SVG Export Plug-In . SVG Version: 6.00 Build 0)  -->
<svg version="1.1" id="layer" xmlns="http://www.w3.org/2000/svg" xmlns:xlink="http://www.w3.org/1999/xlink" x="0px" y="0px"
	 viewBox="-153 -46 652 652" style="enable-background:new -153 -46 652 652;" xml:space="preserve">
<style type="text/css">
	.st0{fill:#E5007D;}
</style>
<path d="M148.3,320.6c-20.9,0-21.8-4-21.8-19.3c0-15,0.9-19.3,21.8-19.3c20.9,0,21.8,4.3,21.8,19.3
	C170.2,316.2,169.2,320.6,148.3,320.6 M148.3,270c-18.7,0-35.5,2.4-35.5,31.2v62.2h13.7v-34.2c6.5,3,14.7,3.3,21.8,3.3
	c18.8,0,35.5-2.4,35.5-31.2C183.9,272.3,167.1,270,148.3,270 M-42.2,239l-38,77.2l-37.8-76.8l-0.2-0.4h-15.2l46.9,93l0.2,0.4H-74
	l47-93.4H-42.2z M285.2,293.4c1.2-7.8,4.7-11.6,19.1-11.6c15.4,0,19.1,4.1,19.8,11.6H285.2z M304.4,270c-10.1,0-33.6,0-33.6,31.2
	c0,31.2,23.6,31.2,33.6,31.2h31.2v-11.9h-31.2c-15.9,0-19.2-4-19.8-15.2h54.1v-4.1C338.6,270,315.5,270,304.4,270 M208,293.4
	c1.2-7.8,4.7-11.6,19.1-11.6c15.4,0,19.1,4.1,19.8,11.6H208z M227.1,270c-10.1,0-33.6,0-33.6,31.2c0,31.2,23.6,31.2,33.6,31.2h31.2
	v-11.8h-31.2c-15.9,0-19.2-4-19.8-15.3h54.1v-4.1C261.4,270,238.2,270,227.1,270 M49.8,293.4c1.2-7.8,4.7-11.6,19.1-11.6
	c15.4,0,19.1,4.1,19.8,11.6H49.8z M68.9,270c-10.1,0-33.6,0-33.6,31.2c0,31.2,23.5,31.2,33.6,31.2h31.2v-11.8H68.9
	c-15.8,0-19.1-4-19.8-15.3h54.1v-4.1C103.2,270,80,270,68.9,270 M-27.7,293.4c1.2-7.8,4.7-11.6,19.1-11.6c15.4,0,19.1,4.1,19.8,11.6
	H-27.7z M-8.5,270c-10.1,0-33.6,0-33.6,31.2c0,31.2,23.6,31.2,33.6,31.2h31.2v-11.8H-8.5c-15.9,0-19.1-4-19.8-15.3h54.1v-4.1
	C25.7,270,2.6,270-8.5,270"/>
<path class="st0" d="M450.5,248.3c-0.6-7.2-2.4-14.3-5.2-21c4.7-9.8,9.4-13.4,9.4-13.4s9.8,25.4,1.2,51.4
	c-5.3,16.1-11.7,25.9-15.2,30c-0.8,0.9-1.4,1.2-1,0.7C447.9,285.2,452.3,267.7,450.5,248.3 M458.4,279.1c-3.7,4.8-7.9,9.2-12.5,13.1
	c-0.6,0.5-1,0.5-0.5,0c15.8-17.3,32.9-55.6,10.7-93.4c-6.5,5.1-12,11.5-16,18.8c-7.1-11-17.4-20.2-30.4-28.4
	c0,0-32.5,36.5-18.2,89.3c-41.5,5.8-26.4,38-19.9,42.6c0.3,0.2,0.6,0.1,0.1-0.5c-2.3-3.6-8.9-16.2,4.6-28.3
	c7.2-6.5,22.3-8.2,22.3-8.2c-3.4-25.5-3.2-48.4,14.2-73.9c2.2,1.4,27.5,12.6,28.4,50.2c2.1,23.5-10,42.4-21.8,49.7
	c-20.9,11.3-44.4,16.8-64.7,21.7c-1.7,0.4-1.1,0.6,0.1,0.5c48.4-2.1,91.5-24,108.1-44.8c3.2-4,4.6-8.4,2.5-10.9
	C463.2,274.2,459.3,278.1,458.4,279.1"/>
</svg>
